<?xml version="1.0" encoding="iso-8859-1"?>
<!-- Uploaded to: SVG Repo, www.svgrepo.com, Generator: SVG Repo Mixer Tools -->
<!DOCTYPE svg PUBLIC "-//W3C//DTD SVG 1.1//EN" "http://www.w3.org/Graphics/SVG/1.1/DTD/svg11.dtd">
<svg version="1.1" id="Capa_1" xmlns="http://www.w3.org/2000/svg"
	 viewBox="0 0 266 90" xml:space="preserve">
<g id="XMLID_40_">
	    <g id="SvgjsG8563"
		   transform="matrix(1.1136386293399552,0,0,1.1136386293399552,-25.679391046845687,-11.532309499642018)"
		   fill="#000000aa">
        <g xmlns="http://www.w3.org/2000/svg">
            <path d="m23.059 10.723h9.7891v79.555h-9.7891z"/>
			<path d="m59.094 53.926v-0.011719c-0.070312 0-0.14062 0.007813-0.21484 0.007813-0.10156 0-0.20312-0.007813-0.30469-0.007813v0.019532c-1.6758 0.0625-3.3008 0.59766-4.6875 1.543-0.36719-0.97266-0.86719-1.8945-1.4883-2.7305-0.55078-0.92969-1.332-1.7031-2.2695-2.2461h-0.46484 0.003907c0.9375-0.54297 1.7188-1.3164 2.2695-2.2461 0.61719-0.83594 1.1172-1.7578 1.4844-2.7305 1.3867 0.94531 3.0117 1.4805 4.6914 1.543v0.019532c0.10156 0 0.20312-0.007813 0.30078-0.007813 0.074219 0 0.14453 0.007813 0.21484 0.007813v-0.011719c6.5-0.18359 12.414-3.7852 15.559-9.4727 3.1445-5.6914 3.0469-12.617-0.25781-18.215-3.3008-5.5977-9.3164-9.0312-15.816-9.0312-6.4531 0.011719-11.832 4.9531-12.383 11.383-0.48047 2.7969 0.89844 5.5859 3.4102 6.9062 2.5156 1.3203 5.5938 0.87109 7.625-1.1133s2.5508-5.0508 1.2891-7.5977c-1.2617-2.543-4.0156-3.9844-6.8281-3.5664 1.7773-1.918 4.2734-3.0078 6.8867-3.0078 5.4414 0 10.48 2.8828 13.238 7.5742 2.7617 4.6953 2.8281 10.496 0.18359 15.254-2.6484 4.7578-7.6172 7.7578-13.059 7.8867-0.57812-0.011719-1.1523-0.082031-1.7148-0.21094-3.2188-0.79688-5.7109-3.3398-6.4492-6.5703-0.35938-1.4883-0.57422-3.0117-0.64453-4.543-0.17969 4.1914-1.4688 8.2578-3.7383 11.789-1.5 2.3008-3.3984 4.3203-5.6055 5.9609v-39.777h-3.918v79.555h3.9141l0.003907-39.777h0.46484-0.003906c2.207 1.6406 4.1055 3.6602 5.6055 5.9609 2.2734 3.5312 3.5625 7.5977 3.7383 11.789 0.070313-1.5312 0.28516-3.0547 0.64453-4.5469 0.73828-3.2305 3.2344-5.7695 6.4492-6.5664 0.5625-0.12891 1.1406-0.19922 1.7188-0.21094 5.4414 0.12891 10.414 3.1289 13.062 7.8867 2.6445 4.7578 2.5781 10.562-0.18359 15.254-2.7617 4.6953-7.8008 7.5742-13.246 7.5742-2.6133 0-5.1055-1.0898-6.8828-3.0078 2.8047 0.41406 5.5547-1.0273 6.8125-3.5664 1.2578-2.5391 0.73828-5.6016-1.2891-7.582-2.0273-1.9844-5.1016-2.4336-7.6094-1.1172-2.5117 1.3164-3.8867 4.1016-3.4102 6.8945 0.55078 6.4297 5.9258 11.371 12.379 11.383 6.5 0 12.516-3.4375 15.816-9.0312 3.3008-5.5977 3.3984-12.523 0.25781-18.211-3.1445-5.6875-9.0586-9.293-15.555-9.4766z"/>
        </g>
    </g>
	<g id="SvgjsG8564"
	   transform="matrix(3.8071068201465987,0,0,3.8071068201465987,80,-19.766497041721465) scale(1.3) translate(-2, -1.9)" fill="#ffffffaa">
        <path d="M0 5.98 l2.06 0 l0 12.7 l-0.74 0 l0 -11.98 l-0.6 0 l0 12.58 l6.58 0 l0 -1.92 l-3.26 0 l0 -0.72 l3.98 0 l0 3.36 l-8.02 0 l0 -14.02 z M2.72 5.98 l0.72 0 l0 11.96 l3.22 0 l0 0.74 l-3.94 0 l0 -12.7 z M12.040000000000001 5.98 l5.8 10.9 l2.42 -4.48 l1.16 7.6 l0.72 0 l-1.5 -9.84 l-2.8 5.18 l-4.98 -9.36 l-0.82 0 z M18.42 11.36 l-0.94 1.74 l0.42 0.76 l1.32 -2.5 l1.76 -3.28 l0.06 -0.14 l0.66 -1.22 l0.48 0 l0.06 0.48 l1.5 9.76 l0.34 2.3 l-0.66 0 l-1.52 -9.9 l-0.18 -1.2 l-0.56 1.06 l1.6 10.48 l-0.02 0 l0.06 0.3 l2.12 0 l-2.12 -14.02 l-1.54 0 z M17.200000000000003 17.06 l-5.74 -10.82 l-0.12 -0.2 l-2.12 13.96 l3.5 0 l0.64 -4.14 l-0.42 -0.78 l-0.16 -0.3 l-0.68 4.48 l-2.04 0 l1.68 -10.96 l6.12 11.52 l2.18 -4.14 l-0.16 -1.06 l-0.02 -0.14 l-2 3.8 z M12.46 12.620000000000001 l3.92 7.38 l0.82 0 l-5.12 -9.62 l-1.3 8.36 l0.72 0 z M36.42 18.74 c1.86 -1.3 2.98 -3.46 2.98 -5.72 c0 -1.22 -0.32 -2.4 -0.94 -3.5 c-1.28 -2.2 -3.64 -3.52 -6.06 -3.52 c-1.26 0 -2.44 0.32 -3.5 0.94 c-2.16 1.26 -3.52 3.6 -3.52 6.08 c0 1.76 0.64 3.4 1.82 4.74 c1.18 1.26 2.78 2.06 4.48 2.24 l-0.48 -0.84 c-1.34 -0.24 -2.54 -0.92 -3.44 -1.9 c-1.06 -1.14 -1.66 -2.66 -1.66 -4.24 c0 -1.14 0.28 -2.2 0.84 -3.18 c1.12 -1.92 3.24 -3.12 5.46 -3.12 c1.1 0 2.14 0.28 3.12 0.84 c1.94 1.12 3.14 3.16 3.14 5.46 c0 2.02 -0.98 3.94 -2.64 5.12 l-0.92 0.6 l2.4 3.88 l0.36 0.6 l-2.42 0 l-3.32 -5.28 l-0.18 -0.02 c-0.78 -0.06 -1.52 -0.34 -2.22 -0.8 c-1.42 -0.94 -2.26 -2.44 -2.26 -4.1 c0 -0.9 0.22 -1.74 0.66 -2.5 c0.88 -1.52 2.5 -2.46 4.28 -2.46 c0.9 0 1.72 0.22 2.48 0.66 c1.5 0.88 2.42 2.56 2.42 4.3 s-0.84 3.3 -2.3 4.2 l-0.38 -0.62 c1.26 -0.78 2.02 -2.14 2.02 -3.6 c0 -0.78 -0.18 -1.5 -0.56 -2.16 c-0.74 -1.3 -2.12 -2.1 -3.7 -2.1 c-0.72 0 -1.42 0.2 -2.08 0.58 c-1.34 0.78 -2.16 2.18 -2.16 3.68 c0 0.74 0.2 1.44 0.58 2.1 c0.78 1.34 2.2 2.16 3.72 2.16 l3.42 5.36 l0.84 0 l-3.88 -6.12 l-0.22 0.04 l-0.22 0 c-0.62 0 -1.22 -0.16 -1.76 -0.48 c-1.1 -0.64 -1.76 -1.8 -1.76 -3.06 c0 -0.64 0.16 -1.24 0.48 -1.78 c0.62 -1.1 1.78 -1.74 3.04 -1.74 c0.64 0 1.24 0.16 1.78 0.46 c1.1 0.62 1.76 1.78 1.76 3.06 c0 1.36 -0.76 2.54 -1.96 3.16 l-0.38 0.16 l1.16 1.84 l0.3 -0.14 c1.86 -0.98 3 -2.9 3 -5 c0 -1.04 -0.24 -1.98 -0.72 -2.84 c-0.98 -1.68 -2.92 -2.82 -4.92 -2.82 c-1.02 0 -1.98 0.26 -2.84 0.76 c-1.74 1.02 -2.84 2.84 -2.84 4.9 c0 1.42 0.54 2.78 1.5 3.82 c0.86 0.96 2.1 1.6 3.46 1.78 l3.36 5.32 l4.12 0 l-3.06 -4.98 l0.3 -0.2 z"/>
    </g>
	<g id="SvgjsG8565"
	   transform="matrix(0.34944672076363265,0,0,0.34944672076363265,72.384973691474,79.08503196355012)" fill="#ffffff">
        <path d="M3.44 5.84 l0 12.6 l6.48 0 l0 1.56 l-8.16 0 l0 -14.16 l1.68 0 z M31.580000000000002 5.84 l0 14.16 l-1.68 0 l0 -14.16 l1.68 0 z M53.2 5.84 l4.36 11.64 l0.04 0 l4.5 -11.64 l1.78 0 l-5.54 14.16 l-1.62 0 l-5.42 -14.16 l1.9 0 z M92.5 5.84 l0 1.56 l-7.22 0 l0 4.44 l6.74 0 l0 1.56 l-6.74 0 l0 5.04 l7.58 0 l0 1.56 l-9.26 0 l0 -14.16 l8.9 0 z M139.8 5.84 l4.8 11.1 l0.04 0 l4.84 -11.1 l2.44 0 l0 14.16 l-1.68 0 l0 -11.88 l-0.04 0 l-5.08 11.88 l-1.02 0 l-5.08 -11.88 l-0.04 0 l0 11.88 l-1.68 0 l0 -14.16 l2.5 0 z M175.20000000000002 5.84 l0 8.52 q0 2.16 0.92 3.28 t2.74 1.16 q1.82 -0.02 2.73 -1.15 t0.93 -3.21 l0 -8.6 l1.68 0 l0 8.82 q0 2.7 -1.4 4.19 t-3.94 1.51 q-2.5 0 -3.91 -1.51 t-1.43 -4.21 l0 -8.8 l1.68 0 z M209.94000000000003 5.48 q2.58 0 3.96 1.66 l-1.38 1.2 q-0.8 -1.26 -2.58 -1.3 q-1.34 0 -2.18 0.64 t-0.84 1.74 q0 0.96 0.64 1.52 t2.4 1.1 q2.28 0.66 3.23 1.61 t0.95 2.57 q0 1.88 -1.4 3 t-3.58 1.14 q-1.46 0 -2.6 -0.52 t-1.76 -1.44 l1.44 -1.18 q0.46 0.76 1.28 1.17 t1.74 0.41 q1.26 0 2.17 -0.71 t0.91 -1.75 q0 -0.94 -0.53 -1.48 t-1.75 -0.92 l-1.62 -0.54 q-1.82 -0.62 -2.57 -1.55 t-0.75 -2.29 q0 -1.8 1.34 -2.93 t3.48 -1.15 z M236.74 5.84 l0 14.16 l-1.68 0 l0 -14.16 l1.68 0 z M264.78 5.48 q1.66 0 2.94 0.59 t2.06 1.63 l-1.46 1.06 q-0.64 -0.86 -1.58 -1.29 t-1.96 -0.43 q-2.26 0 -3.81 1.72 t-1.59 4.16 q0 2.52 1.54 4.19 t3.86 1.69 q2.54 0 4.1 -1.98 l1.26 1.06 q-1.86 2.48 -5.36 2.48 q-3.1 0 -5.13 -2.14 t-2.07 -5.3 q0 -3.16 2.05 -5.28 t5.15 -2.16 z M320.78000000000003 5.48 q2.08 0 3.72 0.95 t2.59 2.61 t0.97 3.7 q0 1.88 -0.97 3.51 t-2.47 2.27 l0 0.04 l4.38 0 l0 1.44 l-8.26 0 q-3.04 0 -5.11 -2.08 t-2.13 -5.18 q0 -2.04 0.96 -3.7 t2.65 -2.61 t3.67 -0.95 z M315.3 12.74 q0 2.4 1.58 4.03 t3.9 1.67 q2.34 0 3.89 -1.65 t1.59 -4.05 q0 -2.42 -1.57 -4.05 t-3.93 -1.65 q-2.3 0 -3.85 1.62 t-1.61 4.08 z M350.76 5.84 l0 8.52 q0 2.16 0.92 3.28 t2.74 1.16 q1.82 -0.02 2.73 -1.15 t0.93 -3.21 l0 -8.6 l1.68 0 l0 8.82 q0 2.7 -1.4 4.19 t-3.94 1.51 q-2.5 0 -3.91 -1.51 t-1.43 -4.21 l0 -8.8 l1.68 0 z M383.04 5.84 l0 14.16 l-1.68 0 l0 -14.16 l1.68 0 z M413.74 5.84 l0 1.44 l-8.18 11.16 l8.28 0 l0 1.56 l-10.32 0 l0 -1.5 l8.18 -11.1 l-8.06 0 l0 -1.56 l10.1 0 z"/>
    </g>
</g>
</svg>