<?xml version="1.0" encoding="iso-8859-1"?>
<!-- Uploaded to: SVG Repo, www.svgrepo.com, Generator: SVG Repo Mixer Tools -->
<!DOCTYPE svg PUBLIC "-//W3C//DTD SVG 1.1//EN" "http://www.w3.org/Graphics/SVG/1.1/DTD/svg11.dtd">
<svg version="1.1" id="Capa_1" xmlns="http://www.w3.org/2000/svg"
	 viewBox="0 0 90 90" xml:space="preserve">
<g id="XMLID_40_">
	    <g id="SvgjsG8563"
		   transform="matrix(1.1136386293399552,0,0,1.1136386293399552,-25.679391046845687,-11.532309499642018)"
		   fill="rgb(34,54,72)">
        <g xmlns="http://www.w3.org/2000/svg">
            <path d="m23.059 10.723h9.7891v79.555h-9.7891z"/>
			<path d="m59.094 53.926v-0.011719c-0.070312 0-0.14062 0.007813-0.21484 0.007813-0.10156 0-0.20312-0.007813-0.30469-0.007813v0.019532c-1.6758 0.0625-3.3008 0.59766-4.6875 1.543-0.36719-0.97266-0.86719-1.8945-1.4883-2.7305-0.55078-0.92969-1.332-1.7031-2.2695-2.2461h-0.46484 0.003907c0.9375-0.54297 1.7188-1.3164 2.2695-2.2461 0.61719-0.83594 1.1172-1.7578 1.4844-2.7305 1.3867 0.94531 3.0117 1.4805 4.6914 1.543v0.019532c0.10156 0 0.20312-0.007813 0.30078-0.007813 0.074219 0 0.14453 0.007813 0.21484 0.007813v-0.011719c6.5-0.18359 12.414-3.7852 15.559-9.4727 3.1445-5.6914 3.0469-12.617-0.25781-18.215-3.3008-5.5977-9.3164-9.0312-15.816-9.0312-6.4531 0.011719-11.832 4.9531-12.383 11.383-0.48047 2.7969 0.89844 5.5859 3.4102 6.9062 2.5156 1.3203 5.5938 0.87109 7.625-1.1133s2.5508-5.0508 1.2891-7.5977c-1.2617-2.543-4.0156-3.9844-6.8281-3.5664 1.7773-1.918 4.2734-3.0078 6.8867-3.0078 5.4414 0 10.48 2.8828 13.238 7.5742 2.7617 4.6953 2.8281 10.496 0.18359 15.254-2.6484 4.7578-7.6172 7.7578-13.059 7.8867-0.57812-0.011719-1.1523-0.082031-1.7148-0.21094-3.2188-0.79688-5.7109-3.3398-6.4492-6.5703-0.35938-1.4883-0.57422-3.0117-0.64453-4.543-0.17969 4.1914-1.4688 8.2578-3.7383 11.789-1.5 2.3008-3.3984 4.3203-5.6055 5.9609v-39.777h-3.918v79.555h3.9141l0.003907-39.777h0.46484-0.003906c2.207 1.6406 4.1055 3.6602 5.6055 5.9609 2.2734 3.5312 3.5625 7.5977 3.7383 11.789 0.070313-1.5312 0.28516-3.0547 0.64453-4.5469 0.73828-3.2305 3.2344-5.7695 6.4492-6.5664 0.5625-0.12891 1.1406-0.19922 1.7188-0.21094 5.4414 0.12891 10.414 3.1289 13.062 7.8867 2.6445 4.7578 2.5781 10.562-0.18359 15.254-2.7617 4.6953-7.8008 7.5742-13.246 7.5742-2.6133 0-5.1055-1.0898-6.8828-3.0078 2.8047 0.41406 5.5547-1.0273 6.8125-3.5664 1.2578-2.5391 0.73828-5.6016-1.2891-7.582-2.0273-1.9844-5.1016-2.4336-7.6094-1.1172-2.5117 1.3164-3.8867 4.1016-3.4102 6.8945 0.55078 6.4297 5.9258 11.371 12.379 11.383 6.5 0 12.516-3.4375 15.816-9.0312 3.3008-5.5977 3.3984-12.523 0.25781-18.211-3.1445-5.6875-9.0586-9.293-15.555-9.4766z"/>
        </g>
    </g>
</g>
</svg>