<svg data-cached="true" xmlns="http://www.w3.org/2000/svg" width="264" height="264" viewBox="20 20 224 224"
     preserveAspectRatio="xMidYMid meet">
    <!--    <svg id="__background" x="0" y="0" width="264" height="264" preserveAspectRatio="xMidYMid meet">-->
    <!--        <rect x="0" y="0" width="264" height="264" fill="#ffffff88" stroke="none" stroke-width="0px"/>-->
    <!--    </svg>-->
    <g id="__padding" transform="translate(48 48)">
        <svg id="data" x="0" y="0" width="168" height="168" viewBox="0 0 264 264" preserveAspectRatio="xMinYMid meet">
            <path d="M0 0L12 0L12 12L24 12L24 24L12 24L12 48L24 48L24 108L12 108L12 120L24 120L24 108L48 108L48 156L36 156L36 144L24 144L24 156L36 156L36 192L48 192L48 168L60 168L60 192L72 192L72 228L60 228L60 216L48 216L48 204L24 204L24 168L12 168L12 204L24 204L24 228L12 228L12 240L24 240L24 252L36 252L36 240L24 240L24 228L36 228L36 216L48 216L48 252L72 252L72 240L84 240L84 252L108 252L108 240L132 240L132 252L168 252L168 240L180 240L180 252L204 252L204 240L180 240L180 228L204 228L204 216L192 216L192 204L204 204L204 192L180 192L180 216L168 216L168 192L156 192L156 216L144 216L144 204L108 204L108 192L120 192L120 180L108 180L108 192L84 192L84 180L96 180L96 168L60 168L60 156L84 156L84 144L72 144L72 132L108 132L108 168L120 168L120 156L132 156L132 192L144 192L144 180L168 180L168 156L156 156L156 168L144 168L144 132L156 132L156 144L192 144L192 156L180 156L180 168L192 168L192 180L216 180L216 204L228 204L228 228L240 228L240 156L264 156L264 168L252 168L252 180L264 180L264 192L252 192L252 204L264 204L264 216L252 216L252 228L264 228L264 240L252 240L252 252L264 252L264 264L0 264ZM24 0L36 0L36 12L24 12ZM48 0L60 0L60 24L48 24ZM72 0L84 0L84 12L96 12L96 24L84 24L84 48L48 48L48 36L60 36L60 24L72 24ZM96 0L108 0L108 12L96 12ZM120 0L132 0L132 12L120 12ZM144 0L156 0L156 12L168 12L168 24L144 24ZM168 0L180 0L180 12L168 12ZM192 0L204 0L204 12L192 12ZM216 0L228 0L228 12L216 12ZM240 0L252 0L252 12L264 12L264 24L240 24ZM204 12L216 12L216 24L228 24L228 36L264 36L264 48L252 48L252 60L240 60L240 48L228 48L228 60L240 60L240 84L264 84L264 96L240 96L240 108L264 108L264 120L216 120L216 108L204 108L204 120L216 120L216 132L156 132L156 120L144 120L144 108L132 108L132 96L144 96L144 84L132 84L132 96L108 96L108 84L96 84L96 72L84 72L84 60L108 60L108 48L120 48L120 60L180 60L180 72L204 72L204 84L180 84L180 96L168 96L168 108L180 108L180 120L192 120L192 108L180 108L180 96L204 96L204 84L216 84L216 36L204 36L204 48L192 48L192 60L180 60L180 48L168 48L168 36L192 36L192 24L204 24ZM36 24L48 24L48 36L36 36ZM96 24L132 24L132 36L144 36L144 48L120 48L120 36L108 36L108 48L96 48ZM48 60L72 60L72 72L48 72ZM252 60L264 60L264 72L252 72ZM72 72L84 72L84 96L72 96ZM36 84L60 84L60 96L72 96L72 120L60 120L60 108L48 108L48 96L36 96ZM84 108L108 108L108 120L84 120ZM120 108L132 108L132 120L120 120ZM108 120L120 120L120 132L108 132ZM132 120L144 120L144 132L132 132ZM240 132L264 132L264 144L240 144ZM204 144L216 144L216 168L204 168ZM228 144L240 144L240 156L228 156ZM96 204L108 204L108 216L96 216ZM132 216L144 216L144 228L132 228ZM84 228L96 228L96 240L84 240ZM144 228L156 228L156 240L144 240ZM228 240L228 252L240 252L240 240Z"
                  fill="#000000" fill-rule="evenodd"/>
        </svg>
    </g>
</svg>