<svg xmlns="http://www.w3.org/2000/svg" xml:space="preserve"
     style="max-width: 100%;height: auto;" width="1023" height="1023" viewBox="0 0 1023 1023">
<g fill="#000000">
    <g transform="translate(310,62)"><rect width="32" height="32"/></g>
    <g transform="translate(341,62)"><rect width="32" height="32"/></g>
    <g transform="translate(372,62)"><rect width="32" height="32"/></g>
    <g transform="translate(403,62)"><rect width="32" height="32"/></g>
    <g transform="translate(434,62)"><rect width="32" height="32"/></g>
    <g transform="translate(496,62)"><rect width="32" height="32"/></g>
    <g transform="translate(527,62)"><rect width="32" height="32"/></g>
    <g transform="translate(620,62)"><rect width="32" height="32"/></g>
    <g transform="translate(682,62)"><rect width="32" height="32"/></g>
    <g transform="translate(310,93)"><rect width="32" height="32"/></g>
    <g transform="translate(403,93)"><rect width="32" height="32"/></g>
    <g transform="translate(465,93)"><rect width="32" height="32"/></g>
    <g transform="translate(496,93)"><rect width="32" height="32"/></g>
    <g transform="translate(651,93)"><rect width="32" height="32"/></g>
    <g transform="translate(310,124)"><rect width="32" height="32"/></g>
    <g transform="translate(341,124)"><rect width="32" height="32"/></g>
    <g transform="translate(372,124)"><rect width="32" height="32"/></g>
    <g transform="translate(403,124)"><rect width="32" height="32"/></g>
    <g transform="translate(434,124)"><rect width="32" height="32"/></g>
    <g transform="translate(465,124)"><rect width="32" height="32"/></g>
    <g transform="translate(496,124)"><rect width="32" height="32"/></g>
    <g transform="translate(527,124)"><rect width="32" height="32"/></g>
    <g transform="translate(620,124)"><rect width="32" height="32"/></g>
    <g transform="translate(651,124)"><rect width="32" height="32"/></g>
    <g transform="translate(682,124)"><rect width="32" height="32"/></g>
    <g transform="translate(403,155)"><rect width="32" height="32"/></g>
    <g transform="translate(434,155)"><rect width="32" height="32"/></g>
    <g transform="translate(465,155)"><rect width="32" height="32"/></g>
    <g transform="translate(589,155)"><rect width="32" height="32"/></g>
    <g transform="translate(620,155)"><rect width="32" height="32"/></g>
    <g transform="translate(651,155)"><rect width="32" height="32"/></g>
    <g transform="translate(682,155)"><rect width="32" height="32"/></g>
    <g transform="translate(434,186)"><rect width="32" height="32"/></g>
    <g transform="translate(465,186)"><rect width="32" height="32"/></g>
    <g transform="translate(496,186)"><rect width="32" height="32"/></g>
    <g transform="translate(558,186)"><rect width="32" height="32"/></g>
    <g transform="translate(620,186)"><rect width="32" height="32"/></g>
    <g transform="translate(651,186)"><rect width="32" height="32"/></g>
    <g transform="translate(682,186)"><rect width="32" height="32"/></g>
    <g transform="translate(310,217)"><rect width="32" height="32"/></g>
    <g transform="translate(341,217)"><rect width="32" height="32"/></g>
    <g transform="translate(372,217)"><rect width="32" height="32"/></g>
    <g transform="translate(403,217)"><rect width="32" height="32"/></g>
    <g transform="translate(434,217)"><rect width="32" height="32"/></g>
    <g transform="translate(620,217)"><rect width="32" height="32"/></g>
    <g transform="translate(682,217)"><rect width="32" height="32"/></g>
    <g transform="translate(310,248)"><rect width="32" height="32"/></g>
    <g transform="translate(372,248)"><rect width="32" height="32"/></g>
    <g transform="translate(434,248)"><rect width="32" height="32"/></g>
    <g transform="translate(496,248)"><rect width="32" height="32"/></g>
    <g transform="translate(558,248)"><rect width="32" height="32"/></g>
    <g transform="translate(620,248)"><rect width="32" height="32"/></g>
    <g transform="translate(682,248)"><rect width="32" height="32"/></g>
    <g transform="translate(310,279)"><rect width="32" height="32"/></g>
    <g transform="translate(341,279)"><rect width="32" height="32"/></g>
    <g transform="translate(372,279)"><rect width="32" height="32"/></g>
    <g transform="translate(403,279)"><rect width="32" height="32"/></g>
    <g transform="translate(496,279)"><rect width="32" height="32"/></g>
    <g transform="translate(527,279)"><rect width="32" height="32"/></g>
    <g transform="translate(558,279)"><rect width="32" height="32"/></g>
    <g transform="translate(124,310)"><rect width="32" height="32"/></g>
    <g transform="translate(155,310)"><rect width="32" height="32"/></g>
    <g transform="translate(186,310)"><rect width="32" height="32"/></g>
    <g transform="translate(248,310)"><rect width="32" height="32"/></g>
    <g transform="translate(310,310)"><rect width="32" height="32"/></g>
    <g transform="translate(341,310)"><rect width="32" height="32"/></g>
    <g transform="translate(434,310)"><rect width="32" height="32"/></g>
    <g transform="translate(465,310)"><rect width="32" height="32"/></g>
    <g transform="translate(496,310)"><rect width="32" height="32"/></g>
    <g transform="translate(620,310)"><rect width="32" height="32"/></g>
    <g transform="translate(651,310)"><rect width="32" height="32"/></g>
    <g transform="translate(713,310)"><rect width="32" height="32"/></g>
    <g transform="translate(744,310)"><rect width="32" height="32"/></g>
    <g transform="translate(775,310)"><rect width="32" height="32"/></g>
    <g transform="translate(868,310)"><rect width="32" height="32"/></g>
    <g transform="translate(899,310)"><rect width="32" height="32"/></g>
    <g transform="translate(930,310)"><rect width="32" height="32"/></g>
    <g transform="translate(62,341)"><rect width="32" height="32"/></g>
    <g transform="translate(155,341)"><rect width="32" height="32"/></g>
    <g transform="translate(496,341)"><rect width="32" height="32"/></g>
    <g transform="translate(527,341)"><rect width="32" height="32"/></g>
    <g transform="translate(589,341)"><rect width="32" height="32"/></g>
    <g transform="translate(744,341)"><rect width="32" height="32"/></g>
    <g transform="translate(775,341)"><rect width="32" height="32"/></g>
    <g transform="translate(806,341)"><rect width="32" height="32"/></g>
    <g transform="translate(868,341)"><rect width="32" height="32"/></g>
    <g transform="translate(930,341)"><rect width="32" height="32"/></g>
    <g transform="translate(124,372)"><rect width="32" height="32"/></g>
    <g transform="translate(155,372)"><rect width="32" height="32"/></g>
    <g transform="translate(186,372)"><rect width="32" height="32"/></g>
    <g transform="translate(248,372)"><rect width="32" height="32"/></g>
    <g transform="translate(434,372)"><rect width="32" height="32"/></g>
    <g transform="translate(465,372)"><rect width="32" height="32"/></g>
    <g transform="translate(558,372)"><rect width="32" height="32"/></g>
    <g transform="translate(713,372)"><rect width="32" height="32"/></g>
    <g transform="translate(744,372)"><rect width="32" height="32"/></g>
    <g transform="translate(775,372)"><rect width="32" height="32"/></g>
    <g transform="translate(806,372)"><rect width="32" height="32"/></g>
    <g transform="translate(837,372)"><rect width="32" height="32"/></g>
    <g transform="translate(93,403)"><rect width="32" height="32"/></g>
    <g transform="translate(155,403)"><rect width="32" height="32"/></g>
    <g transform="translate(186,403)"><rect width="32" height="32"/></g>
    <g transform="translate(217,403)"><rect width="32" height="32"/></g>
    <g transform="translate(434,403)"><rect width="32" height="32"/></g>
    <g transform="translate(465,403)"><rect width="32" height="32"/></g>
    <g transform="translate(527,403)"><rect width="32" height="32"/></g>
    <g transform="translate(589,403)"><rect width="32" height="32"/></g>
    <g transform="translate(620,403)"><rect width="32" height="32"/></g>
    <g transform="translate(713,403)"><rect width="32" height="32"/></g>
    <g transform="translate(744,403)"><rect width="32" height="32"/></g>
    <g transform="translate(806,403)"><rect width="32" height="32"/></g>
    <g transform="translate(899,403)"><rect width="32" height="32"/></g>
    <g transform="translate(62,434)"><rect width="32" height="32"/></g>
    <g transform="translate(124,434)"><rect width="32" height="32"/></g>
    <g transform="translate(155,434)"><rect width="32" height="32"/></g>
    <g transform="translate(186,434)"><rect width="32" height="32"/></g>
    <g transform="translate(248,434)"><rect width="32" height="32"/></g>
    <g transform="translate(279,434)"><rect width="32" height="32"/></g>
    <g transform="translate(341,434)"><rect width="32" height="32"/></g>
    <g transform="translate(372,434)"><rect width="32" height="32"/></g>
    <g transform="translate(403,434)"><rect width="32" height="32"/></g>
    <g transform="translate(496,434)"><rect width="32" height="32"/></g>
    <g transform="translate(589,434)"><rect width="32" height="32"/></g>
    <g transform="translate(620,434)"><rect width="32" height="32"/></g>
    <g transform="translate(651,434)"><rect width="32" height="32"/></g>
    <g transform="translate(713,434)"><rect width="32" height="32"/></g>
    <g transform="translate(775,434)"><rect width="32" height="32"/></g>
    <g transform="translate(868,434)"><rect width="32" height="32"/></g>
    <g transform="translate(899,434)"><rect width="32" height="32"/></g>
    <g transform="translate(930,434)"><rect width="32" height="32"/></g>
    <g transform="translate(155,465)"><rect width="32" height="32"/></g>
    <g transform="translate(217,465)"><rect width="32" height="32"/></g>
    <g transform="translate(279,465)"><rect width="32" height="32"/></g>
    <g transform="translate(341,465)"><rect width="32" height="32"/></g>
    <g transform="translate(372,465)"><rect width="32" height="32"/></g>
    <g transform="translate(434,465)"><rect width="32" height="32"/></g>
    <g transform="translate(465,465)"><rect width="32" height="32"/></g>
    <g transform="translate(589,465)"><rect width="32" height="32"/></g>
    <g transform="translate(651,465)"><rect width="32" height="32"/></g>
    <g transform="translate(682,465)"><rect width="32" height="32"/></g>
    <g transform="translate(713,465)"><rect width="32" height="32"/></g>
    <g transform="translate(744,465)"><rect width="32" height="32"/></g>
    <g transform="translate(806,465)"><rect width="32" height="32"/></g>
    <g transform="translate(837,465)"><rect width="32" height="32"/></g>
    <g transform="translate(930,465)"><rect width="32" height="32"/></g>
    <g transform="translate(124,496)"><rect width="32" height="32"/></g>
    <g transform="translate(186,496)"><rect width="32" height="32"/></g>
    <g transform="translate(217,496)"><rect width="32" height="32"/></g>
    <g transform="translate(248,496)"><rect width="32" height="32"/></g>
    <g transform="translate(372,496)"><rect width="32" height="32"/></g>
    <g transform="translate(403,496)"><rect width="32" height="32"/></g>
    <g transform="translate(496,496)"><rect width="32" height="32"/></g>
    <g transform="translate(558,496)"><rect width="32" height="32"/></g>
    <g transform="translate(620,496)"><rect width="32" height="32"/></g>
    <g transform="translate(713,496)"><rect width="32" height="32"/></g>
    <g transform="translate(744,496)"><rect width="32" height="32"/></g>
    <g transform="translate(775,496)"><rect width="32" height="32"/></g>
    <g transform="translate(93,527)"><rect width="32" height="32"/></g>
    <g transform="translate(124,527)"><rect width="32" height="32"/></g>
    <g transform="translate(155,527)"><rect width="32" height="32"/></g>
    <g transform="translate(217,527)"><rect width="32" height="32"/></g>
    <g transform="translate(372,527)"><rect width="32" height="32"/></g>
    <g transform="translate(434,527)"><rect width="32" height="32"/></g>
    <g transform="translate(496,527)"><rect width="32" height="32"/></g>
    <g transform="translate(558,527)"><rect width="32" height="32"/></g>
    <g transform="translate(620,527)"><rect width="32" height="32"/></g>
    <g transform="translate(651,527)"><rect width="32" height="32"/></g>
    <g transform="translate(713,527)"><rect width="32" height="32"/></g>
    <g transform="translate(806,527)"><rect width="32" height="32"/></g>
    <g transform="translate(837,527)"><rect width="32" height="32"/></g>
    <g transform="translate(899,527)"><rect width="32" height="32"/></g>
    <g transform="translate(155,558)"><rect width="32" height="32"/></g>
    <g transform="translate(186,558)"><rect width="32" height="32"/></g>
    <g transform="translate(217,558)"><rect width="32" height="32"/></g>
    <g transform="translate(248,558)"><rect width="32" height="32"/></g>
    <g transform="translate(279,558)"><rect width="32" height="32"/></g>
    <g transform="translate(403,558)"><rect width="32" height="32"/></g>
    <g transform="translate(434,558)"><rect width="32" height="32"/></g>
    <g transform="translate(527,558)"><rect width="32" height="32"/></g>
    <g transform="translate(558,558)"><rect width="32" height="32"/></g>
    <g transform="translate(775,558)"><rect width="32" height="32"/></g>
    <g transform="translate(806,558)"><rect width="32" height="32"/></g>
    <g transform="translate(837,558)"><rect width="32" height="32"/></g>
    <g transform="translate(868,558)"><rect width="32" height="32"/></g>
    <g transform="translate(930,558)"><rect width="32" height="32"/></g>
    <g transform="translate(62,589)"><rect width="32" height="32"/></g>
    <g transform="translate(124,589)"><rect width="32" height="32"/></g>
    <g transform="translate(372,589)"><rect width="32" height="32"/></g>
    <g transform="translate(527,589)"><rect width="32" height="32"/></g>
    <g transform="translate(589,589)"><rect width="32" height="32"/></g>
    <g transform="translate(620,589)"><rect width="32" height="32"/></g>
    <g transform="translate(651,589)"><rect width="32" height="32"/></g>
    <g transform="translate(682,589)"><rect width="32" height="32"/></g>
    <g transform="translate(713,589)"><rect width="32" height="32"/></g>
    <g transform="translate(744,589)"><rect width="32" height="32"/></g>
    <g transform="translate(775,589)"><rect width="32" height="32"/></g>
    <g transform="translate(806,589)"><rect width="32" height="32"/></g>
    <g transform="translate(837,589)"><rect width="32" height="32"/></g>
    <g transform="translate(868,589)"><rect width="32" height="32"/></g>
    <g transform="translate(899,589)"><rect width="32" height="32"/></g>
    <g transform="translate(930,589)"><rect width="32" height="32"/></g>
    <g transform="translate(62,620)"><rect width="32" height="32"/></g>
    <g transform="translate(186,620)"><rect width="32" height="32"/></g>
    <g transform="translate(217,620)"><rect width="32" height="32"/></g>
    <g transform="translate(248,620)"><rect width="32" height="32"/></g>
    <g transform="translate(279,620)"><rect width="32" height="32"/></g>
    <g transform="translate(341,620)"><rect width="32" height="32"/></g>
    <g transform="translate(434,620)"><rect width="32" height="32"/></g>
    <g transform="translate(465,620)"><rect width="32" height="32"/></g>
    <g transform="translate(527,620)"><rect width="32" height="32"/></g>
    <g transform="translate(589,620)"><rect width="32" height="32"/></g>
    <g transform="translate(620,620)"><rect width="32" height="32"/></g>
    <g transform="translate(682,620)"><rect width="32" height="32"/></g>
    <g transform="translate(744,620)"><rect width="32" height="32"/></g>
    <g transform="translate(837,620)"><rect width="32" height="32"/></g>
    <g transform="translate(868,620)"><rect width="32" height="32"/></g>
    <g transform="translate(62,651)"><rect width="32" height="32"/></g>
    <g transform="translate(186,651)"><rect width="32" height="32"/></g>
    <g transform="translate(217,651)"><rect width="32" height="32"/></g>
    <g transform="translate(279,651)"><rect width="32" height="32"/></g>
    <g transform="translate(372,651)"><rect width="32" height="32"/></g>
    <g transform="translate(589,651)"><rect width="32" height="32"/></g>
    <g transform="translate(620,651)"><rect width="32" height="32"/></g>
    <g transform="translate(744,651)"><rect width="32" height="32"/></g>
    <g transform="translate(899,651)"><rect width="32" height="32"/></g>
    <g transform="translate(930,651)"><rect width="32" height="32"/></g>
    <g transform="translate(62,682)"><rect width="32" height="32"/></g>
    <g transform="translate(186,682)"><rect width="32" height="32"/></g>
    <g transform="translate(217,682)"><rect width="32" height="32"/></g>
    <g transform="translate(248,682)"><rect width="32" height="32"/></g>
    <g transform="translate(279,682)"><rect width="32" height="32"/></g>
    <g transform="translate(341,682)"><rect width="32" height="32"/></g>
    <g transform="translate(372,682)"><rect width="32" height="32"/></g>
    <g transform="translate(403,682)"><rect width="32" height="32"/></g>
    <g transform="translate(465,682)"><rect width="32" height="32"/></g>
    <g transform="translate(527,682)"><rect width="32" height="32"/></g>
    <g transform="translate(558,682)"><rect width="32" height="32"/></g>
    <g transform="translate(682,682)"><rect width="32" height="32"/></g>
    <g transform="translate(713,682)"><rect width="32" height="32"/></g>
    <g transform="translate(744,682)"><rect width="32" height="32"/></g>
    <g transform="translate(775,682)"><rect width="32" height="32"/></g>
    <g transform="translate(806,682)"><rect width="32" height="32"/></g>
    <g transform="translate(837,682)"><rect width="32" height="32"/></g>
    <g transform="translate(868,682)"><rect width="32" height="32"/></g>
    <g transform="translate(310,713)"><rect width="32" height="32"/></g>
    <g transform="translate(341,713)"><rect width="32" height="32"/></g>
    <g transform="translate(372,713)"><rect width="32" height="32"/></g>
    <g transform="translate(403,713)"><rect width="32" height="32"/></g>
    <g transform="translate(434,713)"><rect width="32" height="32"/></g>
    <g transform="translate(465,713)"><rect width="32" height="32"/></g>
    <g transform="translate(496,713)"><rect width="32" height="32"/></g>
    <g transform="translate(527,713)"><rect width="32" height="32"/></g>
    <g transform="translate(589,713)"><rect width="32" height="32"/></g>
    <g transform="translate(682,713)"><rect width="32" height="32"/></g>
    <g transform="translate(806,713)"><rect width="32" height="32"/></g>
    <g transform="translate(837,713)"><rect width="32" height="32"/></g>
    <g transform="translate(899,713)"><rect width="32" height="32"/></g>
    <g transform="translate(930,713)"><rect width="32" height="32"/></g>
    <g transform="translate(465,744)"><rect width="32" height="32"/></g>
    <g transform="translate(496,744)"><rect width="32" height="32"/></g>
    <g transform="translate(558,744)"><rect width="32" height="32"/></g>
    <g transform="translate(589,744)"><rect width="32" height="32"/></g>
    <g transform="translate(651,744)"><rect width="32" height="32"/></g>
    <g transform="translate(682,744)"><rect width="32" height="32"/></g>
    <g transform="translate(744,744)"><rect width="32" height="32"/></g>
    <g transform="translate(806,744)"><rect width="32" height="32"/></g>
    <g transform="translate(465,775)"><rect width="32" height="32"/></g>
    <g transform="translate(496,775)"><rect width="32" height="32"/></g>
    <g transform="translate(558,775)"><rect width="32" height="32"/></g>
    <g transform="translate(589,775)"><rect width="32" height="32"/></g>
    <g transform="translate(651,775)"><rect width="32" height="32"/></g>
    <g transform="translate(682,775)"><rect width="32" height="32"/></g>
    <g transform="translate(806,775)"><rect width="32" height="32"/></g>
    <g transform="translate(837,775)"><rect width="32" height="32"/></g>
    <g transform="translate(899,775)"><rect width="32" height="32"/></g>
    <g transform="translate(930,775)"><rect width="32" height="32"/></g>
    <g transform="translate(310,806)"><rect width="32" height="32"/></g>
    <g transform="translate(341,806)"><rect width="32" height="32"/></g>
    <g transform="translate(434,806)"><rect width="32" height="32"/></g>
    <g transform="translate(465,806)"><rect width="32" height="32"/></g>
    <g transform="translate(496,806)"><rect width="32" height="32"/></g>
    <g transform="translate(589,806)"><rect width="32" height="32"/></g>
    <g transform="translate(682,806)"><rect width="32" height="32"/></g>
    <g transform="translate(713,806)"><rect width="32" height="32"/></g>
    <g transform="translate(744,806)"><rect width="32" height="32"/></g>
    <g transform="translate(775,806)"><rect width="32" height="32"/></g>
    <g transform="translate(806,806)"><rect width="32" height="32"/></g>
    <g transform="translate(837,806)"><rect width="32" height="32"/></g>
    <g transform="translate(868,806)"><rect width="32" height="32"/></g>
    <g transform="translate(930,806)"><rect width="32" height="32"/></g>
    <g transform="translate(310,837)"><rect width="32" height="32"/></g>
    <g transform="translate(341,837)"><rect width="32" height="32"/></g>
    <g transform="translate(403,837)"><rect width="32" height="32"/></g>
    <g transform="translate(434,837)"><rect width="32" height="32"/></g>
    <g transform="translate(527,837)"><rect width="32" height="32"/></g>
    <g transform="translate(589,837)"><rect width="32" height="32"/></g>
    <g transform="translate(651,837)"><rect width="32" height="32"/></g>
    <g transform="translate(682,837)"><rect width="32" height="32"/></g>
    <g transform="translate(713,837)"><rect width="32" height="32"/></g>
    <g transform="translate(775,837)"><rect width="32" height="32"/></g>
    <g transform="translate(837,837)"><rect width="32" height="32"/></g>
    <g transform="translate(310,868)"><rect width="32" height="32"/></g>
    <g transform="translate(403,868)"><rect width="32" height="32"/></g>
    <g transform="translate(434,868)"><rect width="32" height="32"/></g>
    <g transform="translate(527,868)"><rect width="32" height="32"/></g>
    <g transform="translate(558,868)"><rect width="32" height="32"/></g>
    <g transform="translate(651,868)"><rect width="32" height="32"/></g>
    <g transform="translate(682,868)"><rect width="32" height="32"/></g>
    <g transform="translate(713,868)"><rect width="32" height="32"/></g>
    <g transform="translate(744,868)"><rect width="32" height="32"/></g>
    <g transform="translate(775,868)"><rect width="32" height="32"/></g>
    <g transform="translate(806,868)"><rect width="32" height="32"/></g>
    <g transform="translate(899,868)"><rect width="32" height="32"/></g>
    <g transform="translate(651,899)"><rect width="32" height="32"/></g>
    <g transform="translate(682,899)"><rect width="32" height="32"/></g>
    <g transform="translate(713,899)"><rect width="32" height="32"/></g>
    <g transform="translate(806,899)"><rect width="32" height="32"/></g>
    <g transform="translate(837,899)"><rect width="32" height="32"/></g>
    <g transform="translate(899,899)"><rect width="32" height="32"/></g>
    <g transform="translate(341,930)"><rect width="32" height="32"/></g>
    <g transform="translate(372,930)"><rect width="32" height="32"/></g>
    <g transform="translate(434,930)"><rect width="32" height="32"/></g>
    <g transform="translate(465,930)"><rect width="32" height="32"/></g>
    <g transform="translate(589,930)"><rect width="32" height="32"/></g>
    <g transform="translate(806,930)"><rect width="32" height="32"/></g>
    <g transform="translate(868,930)"><rect width="32" height="32"/></g>
</g>
<g>
    <g transform="translate(62,62)" fill="#000000"><g><path d="M0,0v217h217V0H0z M186,186H31V31h155V186z"/></g></g>
    <g transform="translate(744,62)" fill="#000000"><g><path d="M0,0v217h217V0H0z M186,186H31V31h155V186z"/></g></g>
    <g transform="translate(62,744)" fill="#000000"><g><path d="M0,0v217h217V0H0z M186,186H31V31h155V186z"/></g></g>
    <g transform="translate(124,124)" fill="#000000"><g><rect width="93" height="93"/></g></g>
    <g transform="translate(806,124)" fill="#000000"><g><rect width="93" height="93"/></g></g>
    <g transform="translate(124,806)" fill="#000000"><g><rect width="93" height="93"/></g></g>
</g>
</svg>