<svg data-cached="true" xmlns="http://www.w3.org/2000/svg" width="264" height="264" viewBox="20 20 224 224"
     preserveAspectRatio="xMidYMid meet">
    <g id="__padding" transform="translate(48 48)">
        <svg id="data" x="0" y="0" width="168" height="168" viewBox="0 0 264 264" preserveAspectRatio="xMinYMid meet">
            <path d="M0 0L12 0L12 12L24 12L24 24L12 24L12 48L24 48L24 72L36 72L36 84L24 84L24 96L36 96L36 108L24 108L24 120L12 120L12 144L24 144L24 156L12 156L12 168L24 168L24 156L36 156L36 144L48 144L48 168L36 168L36 180L48 180L48 192L24 192L24 180L12 180L12 192L24 192L24 204L36 204L36 216L60 216L60 228L36 228L36 240L24 240L24 252L108 252L108 240L132 240L132 252L144 252L144 228L156 228L156 252L168 252L168 228L180 228L180 252L204 252L204 216L240 216L240 252L264 252L264 264L0 264ZM24 0L36 0L36 12L24 12ZM48 0L60 0L60 24L48 24ZM72 0L84 0L84 12L96 12L96 0L108 0L108 24L96 24L96 36L108 36L108 48L120 48L120 84L132 84L132 60L144 60L144 96L108 96L108 60L96 60L96 48L84 48L84 24L72 24ZM120 0L132 0L132 48L120 48L120 36L108 36L108 24L120 24ZM144 0L156 0L156 12L144 12ZM168 0L180 0L180 12L168 12ZM192 0L204 0L204 12L216 12L216 24L204 24L204 48L240 48L240 60L228 60L228 72L240 72L240 60L264 60L264 72L252 72L252 84L264 84L264 96L240 96L240 108L264 108L264 120L252 120L252 132L264 132L264 144L252 144L252 156L264 156L264 168L252 168L252 180L240 180L240 144L228 144L228 132L240 132L240 120L228 120L228 132L180 132L180 108L204 108L204 120L216 120L216 108L204 108L204 96L180 96L180 72L192 72L192 84L216 84L216 72L192 72L192 48L180 48L180 36L192 36L192 24L180 24L180 12L192 12ZM216 0L228 0L228 12L216 12ZM240 0L252 0L252 12L240 12ZM228 12L240 12L240 24L252 24L252 36L264 36L264 48L240 48L240 36L228 36ZM252 12L264 12L264 24L252 24ZM36 24L48 24L48 36L36 36ZM60 24L72 24L72 36L60 36ZM144 24L156 24L156 36L168 36L168 48L180 48L180 60L156 60L156 48L144 48ZM36 48L48 48L48 60L60 60L60 48L72 48L72 60L84 60L84 72L96 72L96 108L144 108L144 96L156 96L156 132L132 132L132 144L144 144L144 168L132 168L132 156L108 156L108 144L96 144L96 132L108 132L108 120L84 120L84 108L72 108L72 132L84 132L84 144L96 144L96 156L84 156L84 180L72 180L72 168L60 168L60 156L72 156L72 144L48 144L48 132L60 132L60 84L72 84L72 72L60 72L60 84L48 84L48 72L36 72ZM156 72L168 72L168 96L156 96ZM36 84L48 84L48 96L36 96ZM168 96L180 96L180 108L168 108ZM36 108L48 108L48 120L36 120ZM24 120L36 120L36 144L24 144ZM156 132L168 132L168 144L180 144L180 168L156 168ZM192 144L216 144L216 156L192 156ZM216 156L228 156L228 168L216 168ZM48 168L60 168L60 180L48 180ZM96 168L108 168L108 180L96 180ZM120 168L132 168L132 192L144 192L144 204L132 204L132 216L120 216L120 192L108 192L108 180L120 180ZM144 168L156 168L156 180L180 180L180 168L192 168L192 192L204 192L204 216L180 216L180 204L156 204L156 192L144 192ZM84 180L96 180L96 204L84 204ZM204 180L216 180L216 192L204 192ZM252 180L264 180L264 192L252 192ZM216 192L228 192L228 204L216 204ZM60 204L84 204L84 216L120 216L120 228L96 228L96 240L84 240L84 228L72 228L72 216L60 216ZM252 204L264 204L264 216L252 216ZM156 216L168 216L168 228L156 228ZM60 228L72 228L72 240L60 240ZM252 228L264 228L264 240L252 240ZM216 240L216 252L228 252L228 240Z"
                  fill="#000000" fill-rule="evenodd"/>
        </svg>
    </g>
</svg>