<svg data-cached="true" xmlns="http://www.w3.org/2000/svg" width="264" height="264" viewBox="20 20 224 224"
     preserveAspectRatio="xMidYMid meet">
    <!--    <svg id="__background" x="0" y="0" width="264" height="264" preserveAspectRatio="xMidYMid meet">-->
    <!--        <rect x="0" y="0" width="264" height="264" fill="#ffffff88" stroke="none" stroke-width="0px"/>-->
    <!--    </svg>-->
    <g id="__padding" transform="translate(48 48)">
        <svg id="data" x="0" y="0" width="168" height="168" viewBox="0 0 240 240" preserveAspectRatio="xMinYMid meet">
            <path d="M0 0L12 0L12 24L24 24L24 0L36 0L36 12L48 12L48 24L36 24L36 36L24 36L24 60L48 60L48 72L12 72L12 84L24 84L24 96L12 96L12 120L36 120L36 132L48 132L48 156L72 156L72 180L60 180L60 204L48 204L48 216L36 216L36 228L60 228L60 216L72 216L72 228L84 228L84 216L72 216L72 192L120 192L120 228L168 228L168 216L144 216L144 204L156 204L156 192L180 192L180 228L192 228L192 216L204 216L204 228L216 228L216 216L228 216L228 228L240 228L240 240L0 240ZM48 0L60 0L60 12L48 12ZM72 0L84 0L84 12L96 12L96 24L60 24L60 12L72 12ZM96 0L108 0L108 12L96 12ZM120 0L132 0L132 12L120 12ZM144 0L156 0L156 12L144 12ZM168 0L180 0L180 24L192 24L192 0L204 0L204 24L216 24L216 36L192 36L192 48L216 48L216 60L240 60L240 72L216 72L216 84L240 84L240 96L228 96L228 108L216 108L216 96L204 96L204 72L192 72L192 60L180 60L180 72L192 72L192 96L204 96L204 108L216 108L216 120L192 120L192 144L204 144L204 156L240 156L240 168L228 168L228 180L240 180L240 192L204 192L204 180L216 180L216 168L192 168L192 156L180 156L180 168L168 168L168 144L156 144L156 120L144 120L144 156L120 156L120 144L132 144L132 120L120 120L120 108L144 108L144 96L168 96L168 108L180 108L180 96L168 96L168 48L156 48L156 36L168 36L168 24L156 24L156 12L168 12ZM216 0L228 0L228 12L240 12L240 24L216 24ZM96 24L120 24L120 36L132 36L132 24L156 24L156 36L144 36L144 48L120 48L120 60L144 60L144 48L156 48L156 84L144 84L144 96L132 96L132 72L120 72L120 108L108 108L108 84L96 84L96 72L108 72L108 60L72 60L72 72L60 72L60 48L36 48L36 36L84 36L84 48L108 48L108 36L96 36ZM228 36L240 36L240 48L228 48ZM72 72L84 72L84 96L96 96L96 132L84 132L84 108L72 108L72 120L60 120L60 132L48 132L48 120L36 120L36 96L48 96L48 108L60 108L60 96L72 96ZM228 108L240 108L240 120L228 120ZM108 120L120 120L120 132L108 132ZM168 120L168 132L180 132L180 120ZM216 120L228 120L228 132L216 132ZM12 132L12 156L24 156L24 168L36 168L36 156L24 156L24 132ZM204 132L216 132L216 144L204 144ZM228 132L240 132L240 144L228 144ZM72 144L84 144L84 156L72 156ZM96 144L108 144L108 156L120 156L120 180L108 180L108 168L96 168ZM144 168L156 168L156 180L144 180ZM24 180L24 204L12 204L12 216L24 216L24 204L36 204L36 180ZM132 180L144 180L144 204L132 204ZM192 192L204 192L204 204L192 204ZM96 204L96 216L108 216L108 204ZM204 204L216 204L216 216L204 216ZM228 204L240 204L240 216L228 216Z"
                  fill="#000000" fill-rule="evenodd"/>
        </svg>
    </g>
</svg>